<!-- Save this as wave.svg in the appropriate directory -->
<svg width="100%" height="150px" viewBox="0 0 1200 120" xmlns="http://www.w3.org/2000/svg">
  <path d="M0 0V46.29c47.76 22.38 103.28 26.59 154 12.57 36.73-9.94 69.77-29.73 104.7-41.07 51.48-16.59 107.68-15.9 158.95 1.42 44.84 14.94 86.69 38.8 131.16 47.8 54.28 11.08 108.86 1.33 160.8-14.68 52.66-16.27 101.18-41.95 157.57-45.18 39.15-2.35 78.42 5.35 116.57 15.59 35.27 9.27 68.41 22.76 104.38 27.35 45.72 5.87 93.87-1.48 135-23.22V0z" fill="#026b96"></path>
</svg>
